<svg width="44" height="44" viewBox="0 0 44 44" xmlns="http://www.w3.org/2000/svg">
  <defs>
    <linearGradient id="g" x1="0" y1="0" x2="1" y2="1">
      <stop offset="0" stop-color="#111827"/>
      <stop offset="1" stop-color="#E11D48"/>
    </linearGradient>
  </defs>
  <rect x="2" y="2" width="40" height="40" rx="12" fill="url(#g)"/>
  <path d="M14 29V15h4.6c3.1 0 5.1 1.6 5.1 4.2 0 1.7-.9 3-2.3 3.6 1.8.6 2.9 2 2.9 3.9 0 2.9-2.2 4.3-5.6 4.3H14zm3.3-8.6h1.5c1.2 0 1.9-.6 1.9-1.5 0-1-.7-1.5-2-1.5h-1.4v3zm0 5.7h1.9c1.4 0 2.2-.6 2.2-1.7 0-1.1-.8-1.7-2.3-1.7h-1.8v3.4z" fill="#fff"/>
  <circle cx="31" cy="15" r="2.2" fill="#fff" opacity=".9"/>
</svg>
